<svg xmlns="http://www.w3.org/2000/svg" width="192" height="120"><defs><style>.b{fill:#1f9f62}.d{fill:#f0a955}.e{fill:#754c24}.g{fill:#e8923c}.j{fill:#006aa6}.m{fill:#006198}.o{fill:#fff}.p{fill:#3397cf}</style></defs><path fill="none" d="M0 0h192v120H0z"/><g transform="translate(41.1 .6)"><path d="M75.5 118.2s5.7-4.3 5.7-14.2c0 0-7.1 0-10 2.8s-4.2 5.7-4.2 11.4z" class="b"/><path d="M82.3 17.3H37.6A24.4 24.4 0 0014 41.6v38.2h92.7V41.6a24.4 24.4 0 00-24.3-24.3z" class="d"/><path d="M32 19.2h14a16.5 16.5 0 0116.6 16.6v44h-47v-44A16.5 16.5 0 0132 19.2z" class="e"/><path fill="#7c552f" d="M46.3 20.4a23.3 23.3 0 00-7.2-1.2 23.6 23.6 0 00-23.6 23.6v37H30v-37a23.6 23.6 0 0116.4-22.4z"/><path d="M4 76h58.6v3.7H4z" class="g"/><path fill="#ef9d47" d="M62.6 76h47.1v3.7h-47z"/><path d="M57.8 79.8h13.5v38.4H57.8z" class="d"/><path d="M62.6 79.8h9.6v38.4h-9.6z" class="g"/><path fill="#f2f2f2" d="M86.6 0H90v43.2h-3.5z"/><path d="M90.5.2h7.7a5.7 5.7 0 015.7 5.7v4.9a5.7 5.7 0 01-5.7 5.7h-7.7V.2z" class="j"/><path fill="#00609c" d="M85.7.2h4.8v16.3h-4.8z"/><circle cx="5.3" cy="5.3" r="5.3" class="e" transform="translate(82.8 38.4)"/><circle cx="3.4" cy="3.4" r="3.4" fill="#886542" transform="translate(84.7 40.4)"/><g transform="translate(0 20)"><path d="M23.5.5l-22 14.6A3.3 3.3 0 000 17.8v28.8a3.3 3.3 0 003.3 3.2h44a3.3 3.3 0 003.4-3.2V17.8a3.3 3.3 0 00-1.5-2.7L27.2.5a3.3 3.3 0 00-3.7 0z" class="m"/><rect width="42.6" height="31.3" fill="#dbf0f4" rx="3" transform="translate(4.4 3)"/><path d="M22.4 15h-11a2.2 2.2 0 110-4.5h11a2.2 2.2 0 010 4.5zm12.5 6.7H10.6a1.6 1.6 0 110-3.2H35a1.6 1.6 0 010 3.2z" class="o"/><path d="M25.4 32.7L.4 16.3a3.3 3.3 0 00-.4 1.5v28.8a3.3 3.3 0 002.8 3.2z" class="p"/><path d="M25.3 32.7l25-16.4a3.3 3.3 0 01.4 1.5v28.8a3.3 3.3 0 01-2.8 3.2z" class="j"/><path d="M0 17.4a3.6 3.6 0 01.1-.4 3.6 3.6 0 000 .4zm50.7 0a3.4 3.4 0 010 .4 3.4 3.4 0 000-.4zm-.1-.4a3 3 0 010 .4 3 3 0 000-.4zM0 17.8a3.4 3.4 0 010-.4 3.4 3.4 0 000 .4zm2.8 32a3.3 3.3 0 00.5 0h44a3.3 3.3 0 00.6 0l-22.6-17zM.1 17zm2.7 32.8zM0 17.4zm50.6 0zm0-.4zm-2.7 32.8zm-22.6-17v-.1z" class="p"/><path d="M2.2 49.8zm47 0zM25.7 32zm-.4.7l22.6 17.1a3.3 3.3 0 001-.3L26 32.3z" class="m"/></g><circle cx="3.6" cy="3.6" r="3.6" class="p" transform="translate(35.6 28.5)"/><path d="M39 33.8a.6.6 0 01-.5-.1l-1.4-1.4a.6.6 0 011-1l.8 1 1.4-1.8a.6.6 0 111 .8l-1.8 2.3a.6.6 0 01-.5.2z" class="o"/><path d="M54.2 118.2s-5.7-4.3-5.7-14.2c0 0 7 0 10 2.8s4.2 5.7 4.2 11.4z" class="b"/><path fill="#fff" fill-rule="evenodd" d="M99.5 7.8a.9.9 0 11-.9-.9.9.9 0 01.9 1zm2-.7v2.1a4.2 4.2 0 01-4.3 4.3H93V2.9h4.2a4.2 4.2 0 014.2 4.2zm-1.1 0a3.2 3.2 0 00-.4-1.5 2.6 2.6 0 00-.7-.6A8 8 0 0194 8v4.3h3.2a3.2 3.2 0 002.8-1.6 3 3 0 01-1.7-.9l.7-.7a2 2 0 00.8.5.7.7 0 00.6-.1 3.2 3.2 0 000-.4z"/></g></svg>