<svg id="Capa_1" enable-background="new 0 0 512 512" height="512" viewBox="0 0 512 512" width="512" xmlns="http://www.w3.org/2000/svg"><g><path d="m411.257 512h-310.514v-82.784c0-42.589 34.525-77.115 77.115-77.115h156.285c42.589 0 77.115 34.525 77.115 77.115v82.784z" fill="#82aee3"/><path d="m390.618 118.644h-269.58l-17.936 132.877c-5.601 41.499 26.668 78.416 68.543 78.416h168.367c41.875 0 74.144-36.918 68.543-78.416z" fill="#9e5528"/><path d="m204.254 282.384v82.743h103.493c0-11.42 0-71.101 0-82.743z" fill="#ffcebf"/><path d="m204.253 313.356c15.615 7.665 33.177 11.97 51.746 11.97 18.569 0 36.132-4.306 51.746-11.97 0-13.908 0-26.303 0-30.971h-103.492z" fill="#ffb09e"/><path d="m373.606 134.78c-.409 0-.813.017-1.218.031-8.211-56.928-57.187-100.673-116.388-100.673-59.201 0-108.177 43.745-116.387 100.673-.405-.013-.81-.031-1.218-.031-19.997 0-36.208 16.211-36.208 36.208s16.211 36.208 36.208 36.208c.409 0 .813-.017 1.218-.031 8.21 56.928 57.186 100.673 116.387 100.673 59.201 0 108.177-43.745 116.387-100.673.405.013.81.031 1.218.031v-72.416z" fill="#ffcebf"/><path d="m121.038 113.133v26.072h98.976c19.875 0 35.987-16.112 35.987-35.987v-87.763c0-8.518-6.905-15.423-15.423-15.423h-6.438c-62.465 0-113.102 50.637-113.102 113.101z" fill="#ac5e2e"/><g><path d="m337.674 241.306h-18.507c-4.259 0-7.711-3.452-7.711-7.711s3.452-7.711 7.711-7.711h18.507c4.259 0 7.711 3.452 7.711 7.711s-3.451 7.711-7.711 7.711z" fill="#f47c7c"/></g><g><path d="m192.628 241.306h-18.507c-4.259 0-7.711-3.452-7.711-7.711s3.452-7.711 7.711-7.711h18.507c4.259 0 7.711 3.452 7.711 7.711s-3.451 7.711-7.711 7.711z" fill="#f47c7c"/></g><path d="m334.143 352.101h-40.804c42.589 0 77.115 34.525 77.115 77.115v82.784h40.804v-82.784c-.001-42.589-34.526-77.115-77.115-77.115z" fill="#528fd8"/><path d="m204.254 328.528 51.746 36.6-38.059 36.114c-2.319 2.2-5.934 2.265-8.33.149l-48.753-43.059c-3.33-2.941-2.553-8.332 1.472-10.213z" fill="#d3e1f5"/><path d="m307.746 328.528-51.746 36.6 38.059 36.114c2.319 2.2 5.934 2.265 8.33.149l48.753-43.059c3.33-2.941 2.553-8.332-1.472-10.213z" fill="#d3e1f5"/><path d="m256 365.128-63.319 60.083c-3.145 2.984-2.957 8.05.399 10.793l20.479 16.741c3.829 3.13 9.6 1.555 11.309-3.085z" fill="#0055a3"/><path d="m349.67 348.118-41.923-19.589-11.595 8.201 24.372 11.388c4.025 1.881 4.803 7.272 1.472 10.213l-37.891 33.466 9.954 9.445c2.319 2.2 5.934 2.265 8.33.149l48.753-43.059c3.33-2.943 2.553-8.334-1.472-10.214z" fill="#c0d6f2"/><path d="m256 365.128 63.319 60.083c3.145 2.984 2.957 8.05-.399 10.793l-20.479 16.741c-3.829 3.13-9.6 1.555-11.309-3.085z" fill="#0055a3"/><path d="m408.554 251.522-17.936-132.878h-40.804l17.936 132.878c3.775 27.965-9.657 53.834-31.629 67.741-2.864 1.813-3.638 5.638-1.614 8.357 1.087 1.461 2.803 2.323 4.624 2.321 2.217-.002 3.824-.027 6.064-.192 39.316-2.896 68.727-38.458 63.359-78.227z" fill="#c86d36"/><path d="m256 15.455v87.764c0 19.875 16.112 35.987 35.987 35.987h98.976v-26.072c0-62.464-50.637-113.101-113.101-113.101h-6.438c-8.519-.001-15.424 6.904-15.424 15.422z" fill="#ac5e2e"/><path d="m277.861.032c-6.565 0-10.229-.505-14.841 2.5 51.133 10.857 89.507 56.233 89.507 110.601v26.072h38.435v-26.072c0-62.464-50.637-113.101-113.101-113.101z" fill="#9e5528"/><g><path d="m256 262.509c-15.483 0-28.08-11.455-28.08-25.534 0-4.259 3.452-7.711 7.711-7.711s7.711 3.452 7.711 7.711c0 5.576 5.678 10.111 12.657 10.111 6.978 0 12.657-4.535 12.657-10.111 0-4.259 3.452-7.711 7.711-7.711s7.711 3.452 7.711 7.711c.002 14.08-12.595 25.534-28.078 25.534z" fill="#ee6161"/></g><g><path d="m309.288 204.912c-4.259 0-7.711-3.452-7.711-7.711v-22.62c0-4.259 3.452-7.711 7.711-7.711h13.367c4.259 0 7.711 3.452 7.711 7.711s-3.452 7.711-7.711 7.711h-5.655v14.908c0 4.26-3.452 7.712-7.712 7.712z" fill="#444"/></g><g><path d="m202.712 204.912c-4.259 0-7.711-3.452-7.711-7.711v-14.909h-5.655c-4.259 0-7.711-3.452-7.711-7.711s3.452-7.711 7.711-7.711h13.367c4.259 0 7.711 3.452 7.711 7.711v22.62c-.001 4.259-3.453 7.711-7.712 7.711z" fill="#444"/></g></g></svg>