<svg id="Capa_1" enable-background="new 0 0 512 512" height="512" viewBox="0 0 512 512" width="512" xmlns="http://www.w3.org/2000/svg"><g><path d="m408.538 512h-305.076v-103.725c0-27.415 22.224-49.64 49.64-49.64h205.798c27.415 0 49.64 22.224 49.64 49.64v103.725z" fill="#d3e1f5"/><path d="m203.953 266.58v112.854h104.093c0-15.575 0-96.974 0-112.854z" fill="#ffcebf"/><path d="m275.649 432c-14.22 0-25.078 0-39.298 0l-10.794 80h60.885z" fill="#0055a3"/><path d="m203.953 327.072c15.538 8.215 33.247 12.872 52.047 12.872 18.8 0 36.509-4.657 52.047-12.872 0-25.544 0-52.121 0-60.492h-104.094z" fill="#ffb09e"/><path d="m367.537 158.227c-.388 0-.771.016-1.155.029-7.787-53.99-54.235-95.478-110.381-95.478-56.146 0-102.595 41.488-110.381 95.478-.384-.013-.768-.029-1.155-.029-18.965 0-34.34 15.374-34.34 34.34s15.374 34.34 34.34 34.34c.388 0 .771-.017 1.155-.029 7.786 53.99 54.235 95.478 110.381 95.478 56.146 0 102.595-41.488 110.381-95.478.384.013.768.029 1.155.029 18.965 0 34.34-15.374 34.34-34.34s-15.375-34.34-34.34-34.34z" fill="#ffcebf"/><path d="m364.745 173.477h31.338v-75.116c0-31.137-25.241-56.378-56.378-56.378h-2.242c-10.721 0-19.413 8.691-19.413 19.413v65.386c0 25.788 20.906 46.695 46.695 46.695z" fill="#ac5e2e"/><g><path d="m256 274.496c-15.573 0-28.242-11.52-28.242-25.681 0-4.284 3.473-7.756 7.756-7.756 4.284 0 7.756 3.472 7.756 7.756 0 5.607 5.711 10.169 12.73 10.169s12.73-4.562 12.73-10.169c0-4.284 3.472-7.756 7.756-7.756s7.756 3.472 7.756 7.756c0 14.161-12.669 25.681-28.242 25.681z" fill="#ee6161"/></g><path d="m144.862 2.953-23.802 38.68c-18.227 29.62-19.125 66.752-2.349 97.219 7.526 13.668 21.892 22.158 37.495 22.158h115.775c25.443 0 46.069-20.626 46.069-46.069v-56.294c0-14.214-11.523-25.737-25.737-25.737h-73.666c-24.762 0-48.181-11.252-63.656-30.582-2.684-3.353-7.879-3.032-10.129.625z" fill="#ac5e2e"/><g><path d="m203.234 220.72c-4.284 0-7.756-3.472-7.756-7.756v-25.199c0-4.284 3.473-7.756 7.756-7.756 4.284 0 7.756 3.472 7.756 7.756v25.199c0 4.284-3.473 7.756-7.756 7.756z" fill="#444"/></g><g><path d="m308.766 220.72c-4.284 0-7.756-3.472-7.756-7.756v-25.199c0-4.284 3.472-7.756 7.756-7.756s7.756 3.472 7.756 7.756v25.199c.001 4.284-3.472 7.756-7.756 7.756z" fill="#444"/></g><g><path d="m338.148 256.874h-18.615c-4.284 0-7.756-3.472-7.756-7.756s3.472-7.756 7.756-7.756h18.615c4.284 0 7.756 3.472 7.756 7.756.001 4.284-3.472 7.756-7.756 7.756z" fill="#f47c7c"/></g><g><path d="m192.261 256.874h-18.615c-4.284 0-7.756-3.472-7.756-7.756s3.473-7.756 7.756-7.756h18.615c4.284 0 7.756 3.472 7.756 7.756s-3.473 7.756-7.756 7.756z" fill="#f47c7c"/></g><path d="m339.704 41.983h-2.242c-5.426 0-10.326 2.231-13.848 5.82 18.619 9.206 31.428 28.382 31.428 50.559v74.099c3.131.662 6.375 1.016 9.703 1.016h31.338v-75.116c-.001-31.137-25.242-56.378-56.379-56.378z" fill="#9e5528"/><path d="m358.899 358.636h-41.041c27.415 0 49.64 22.224 49.64 49.64v103.724h41.041v-103.725c-.001-27.415-22.225-49.639-49.64-49.639z" fill="#c0d6f2"/><path d="m275.649 432c-7.439 0-13.959 0-20.52 0l10.794 80h20.52z" fill="#004281"/><path d="m217.047 368.922 19.304 63.078h39.298l19.304-63.077c-11.275-.001-66.597-.001-77.906-.001z" fill="#004281"/><path d="m256 368.922-52.047-31.695-37.776 18.179c-2.925 1.407-3.163 5.481-.423 7.22l54.093 34.333c3.322 2.109 7.67 1.586 10.397-1.251z" fill="#d3e1f5"/><path d="m256 368.922 52.047-31.695 37.776 18.179c2.925 1.407 3.163 5.481.423 7.22l-54.093 34.333c-3.322 2.109-7.67 1.586-10.397-1.251z" fill="#d3e1f5"/><path d="m345.823 355.406-37.776-18.179-12.94 7.88 21.401 10.299c2.925 1.407 3.163 5.481.423 7.22l-41.598 26.402 6.423 6.68c2.727 2.836 7.075 3.359 10.397 1.251l54.093-34.333c2.74-1.739 2.501-5.812-.423-7.22z" fill="#c0d6f2"/></g></svg>